<svg id="visual" viewBox="0 0 2000 1000" width="2000" height="1000" xmlns="http://www.w3.org/2000/svg" xmlns:xlink="http://www.w3.org/1999/xlink" version="1.1"><path d="M0 725L47.7 723C95.3 721 190.7 717 285.8 695C381 673 476 633 571.2 626.5C666.3 620 761.7 647 857 656.2C952.3 665.3 1047.7 656.7 1143 669.2C1238.3 681.7 1333.7 715.3 1428.8 718.5C1524 721.7 1619 694.3 1714.2 681.2C1809.3 668 1904.7 669 1952.3 669.5L2000 670L2000 1001L1952.3 1001C1904.7 1001 1809.3 1001 1714.2 1001C1619 1001 1524 1001 1428.8 1001C1333.7 1001 1238.3 1001 1143 1001C1047.7 1001 952.3 1001 857 1001C761.7 1001 666.3 1001 571.2 1001C476 1001 381 1001 285.8 1001C190.7 1001 95.3 1001 47.7 1001L0 1001Z" fill="#023047"></path><path d="M0 763L47.7 766C95.3 769 190.7 775 285.8 775.8C381 776.7 476 772.3 571.2 763.3C666.3 754.3 761.7 740.7 857 724.7C952.3 708.7 1047.7 690.3 1143 698.7C1238.3 707 1333.7 742 1428.8 751C1524 760 1619 743 1714.2 730.2C1809.3 717.3 1904.7 708.7 1952.3 704.3L2000 700L2000 1001L1952.3 1001C1904.7 1001 1809.3 1001 1714.2 1001C1619 1001 1524 1001 1428.8 1001C1333.7 1001 1238.3 1001 1143 1001C1047.7 1001 952.3 1001 857 1001C761.7 1001 666.3 1001 571.2 1001C476 1001 381 1001 285.8 1001C190.7 1001 95.3 1001 47.7 1001L0 1001Z" fill="#023047"></path><path d="M0 808L47.7 805C95.3 802 190.7 796 285.8 791.5C381 787 476 784 571.2 786C666.3 788 761.7 795 857 799.3C952.3 803.7 1047.7 805.3 1143 811.3C1238.3 817.3 1333.7 827.7 1428.8 824.2C1524 820.7 1619 803.3 1714.2 796.3C1809.3 789.3 1904.7 792.7 1952.3 794.3L2000 796L2000 1001L1952.3 1001C1904.7 1001 1809.3 1001 1714.2 1001C1619 1001 1524 1001 1428.8 1001C1333.7 1001 1238.3 1001 1143 1001C1047.7 1001 952.3 1001 857 1001C761.7 1001 666.3 1001 571.2 1001C476 1001 381 1001 285.8 1001C190.7 1001 95.3 1001 47.7 1001L0 1001Z" fill="#023047"></path><path d="M0 807L47.7 806.3C95.3 805.7 190.7 804.3 285.8 812.5C381 820.7 476 838.3 571.2 843.8C666.3 849.3 761.7 842.7 857 841C952.3 839.3 1047.7 842.7 1143 841.8C1238.3 841 1333.7 836 1428.8 833.3C1524 830.7 1619 830.3 1714.2 838.5C1809.3 846.7 1904.7 863.3 1952.3 871.7L2000 880L2000 1001L1952.3 1001C1904.7 1001 1809.3 1001 1714.2 1001C1619 1001 1524 1001 1428.8 1001C1333.7 1001 1238.3 1001 1143 1001C1047.7 1001 952.3 1001 857 1001C761.7 1001 666.3 1001 571.2 1001C476 1001 381 1001 285.8 1001C190.7 1001 95.3 1001 47.7 1001L0 1001Z" fill="#023047"></path><path d="M0 911L47.7 911.8C95.3 912.7 190.7 914.3 285.8 914.8C381 915.3 476 914.7 571.2 909.3C666.3 904 761.7 894 857 896.3C952.3 898.7 1047.7 913.3 1143 923C1238.3 932.7 1333.7 937.3 1428.8 935.5C1524 933.7 1619 925.3 1714.2 921.7C1809.3 918 1904.7 919 1952.3 919.5L2000 920L2000 1001L1952.3 1001C1904.7 1001 1809.3 1001 1714.2 1001C1619 1001 1524 1001 1428.8 1001C1333.7 1001 1238.3 1001 1143 1001C1047.7 1001 952.3 1001 857 1001C761.7 1001 666.3 1001 571.2 1001C476 1001 381 1001 285.8 1001C190.7 1001 95.3 1001 47.7 1001L0 1001Z" fill="#023047"></path></svg>